<svg xmlns="http://www.w3.org/2000/svg" fill="#000" width="100.25" height="124.59"
    viewBox="0 0 100.25 124.59">
    <script xmlns="" />
    <path d="M100.25 124.59H0V0h100.25v124.59Zm-99.25-1h98.25V1H1v122.59Z" />
    <path
        d="M3.42 35.75c0-16.54 7.94-24.08 17.56-24.08 3.25.05 6.41 1.13 9 3.1-.4 2.15-.66 4.31-1.02 6.52h-.62c-1.63-3.42-4.46-5.83-7.32-5.83-7.33 0-10.28 10.08-10.28 19.39 0 10.84 3.71 18.44 10.5 18.44 2.74 0 5.91-2.03 7.9-4.75l.57.38-.97 5.45A14.544 14.544 0 0 1 20 57.09c-9.44 0-16.59-8.36-16.59-21.35Zm79.99 21.34c3.13.09 6.15-1.13 8.34-3.36 4.59-4.56 4.54-11.15 4.68-18.37V12.81c-1.16.25-2.37.25-3.53 0v19.2c0 3.1 0 10.33-.79 13.11-1.54 5.51-3.75 7.67-7.85 7.67-2.03 0-3.92-1.03-5.03-2.72-1.59-2.22-1.94-4.18-2.34-7.29-.3-3.98-.41-7.98-.31-11.97v-18c-1.1.17-2.2.28-3.31.32-1.11-.04-2.21-.15-3.31-.32v25.85c0 2.61.23 5.22.71 7.79 1.63 8.24 7.41 10.64 12.75 10.64Zm-69.99 52.08 7.83 4.94-4.29 2.96-6.33-4.68-1.4.97 3 6.98-3.84 2.65-7.54-17.46 6.86-4.72c3.04-2.09 5.11-1.17 6.09.25 1.64 2.38 1.17 5.64-.38 8.12Zm-2.84-4.6c-.76-1.1-1.85-.45-2.72.15-.51.35-1.03.77-1.49 1.15l2.08 4.88.83-.57a4.249 4.249 0 0 0 1.29-5.62Zm23.89 1.63.31 3.49c-1.97 1.56-4.2 2.77-6.58 3.57-2.72.8-6.04.32-6.97-2.8-1.16-3.88.53-10.51 6.71-12.34 1.68-.5 3.91-.17 4.52 1.91 1.15 3.88-3.16 7.74-6.57 8.65.45 1.42 1.72 1.69 3.03 1.3 2.09-.86 3.98-2.15 5.55-3.77Zm-8.65-.29c2.26-.62 3.56-1.87 3.04-3.62-.01-.06-.03-.12-.05-.18a.96.96 0 0 0-1.24-.54c-1.56.46-1.91 2.99-1.75 4.34Zm24.96-9.59a2.711 2.711 0 0 0-3.2-2.11c-2.82.49-4.75 4.73-5.35 7.24l-.3.05.43-6.06-4.85.85-.33 14.24 4.9-.86.11-4.44c.31-1.08 2.53-6.05 3.42-6.2.23-.04.32.2.35.36.01.24.01.47 0 .71l-.19 8.93 4.88-.85.24-9.54c.05-.68.04-1.36-.04-2.03 0-.09-.02-.19-.04-.28Zm27.69 6.95c2.24-.33 4.38-1.11 6.31-2.3l-.55 3.45a21.716 21.716 0 0 1-7.25 1.85c-2.84.12-5.94-1.17-6.07-4.41-.06-1.35.28-2.92.97-4.42-1.05-.63-2.11-1.25-3.19-1.85-.02.44-.08.88-.12 1.32l-.96 9.49-4.93.48.86-8.89c.03-.23.05-.47.06-.7-.01-.15-.09-.41-.32-.38-.9.09-3.48 4.88-3.87 5.92l-.45 4.42-4.95.49 1.4-14.17 4.9-.48-.88 6.02.31-.03c.61-1.9 2.08-4.74 4.03-6.08-8.63-4.2-17.65-7.53-26.94-9.94l-2.79-3.64c11.31 2.94 22.22 7.27 32.46 12.89-.14-.03-.29-.05-.44-.06.15 0 .29.03.44.06.56.1 1.08.39 1.45.83.42.49.67 1.11.73 1.75-.05-.65-.31-1.26-.73-1.75 1.54.9 3.05 1.83 4.54 2.8l.12.15c1.56-2.43 4.18-4.41 7.82-4.56 1.75-.07 3.83.79 3.92 2.96.17 4.04-4.96 6.73-8.49 6.78.09 1.49 1.25 2.06 2.61 2.01Zm-2-4.8c2.35-.05 3.91-.94 3.83-2.77v-.18a.97.97 0 0 0-1.07-.83c-1.62.07-2.58 2.43-2.76 3.78Zm18.95-4.27c1.07.04 2.12.26 3.12.65l.6-3.01c-1.29-.22-2.59-.36-3.89-.42-5.31-.01-6.46 2.66-6.46 4.31 0 3.04 3.99 4.24 3.98 6.14-.06.8-.75 1.39-1.55 1.34-1.55-.16-3.06-.59-4.46-1.27l-.65 3.27c1.66.48 3.38.74 5.1.79 5.29.01 6.54-2.77 6.54-4.62 0-3.04-4.29-4.24-4.29-5.89 0-1.03 1.14-1.28 1.96-1.28ZM60.41 65.6l-2.79-3.63c-7.42 3.11-15.4 4.24-23.22 5.78l2.79 3.59c7.82-1.59 15.81-2.62 23.23-5.74ZM42.1 56.27V35.05c2.25-.13 4.5-.32 6.75-.32.45 0 .89 0 1.34.02 1.8.05 3.61.19 5.41.29v21.22c1.1-.17 2.2-.27 3.31-.31 1.11.04 2.21.15 3.31.32V12.81c-1.1.17-2.2.27-3.31.32-1.11-.04-2.21-.15-3.31-.32v17.17c-1.8.1-3.61.24-5.41.29-.45.01-.89.02-1.34.02-2.25 0-4.5-.19-6.75-.32V12.81c-1.1.17-2.2.27-3.31.32-1.11-.04-2.21-.15-3.31-.32v43.46c1.1-.17 2.2-.27 3.31-.32 1.11.04 2.21.15 3.31.32Z" />
    <script xmlns="" />
</svg>